<svg width="998" height="825" viewBox="0 0 998 825" fill="none" xmlns="http://www.w3.org/2000/svg">
<path d="M365.135 51.4337L24.9959 205.667C-8.12642 233.267 106.78 303.385 106.78 347.94V640.109C106.78 731.585 176.337 806.5 261.719 806.5H687.895C773.277 806.5 842.834 731.585 842.834 640.504V353.46C842.834 305.751 958.327 232.873 921.892 205.667L549.149 46.7022C497.625 8.06176 414.818 10.0332 365.135 51.4337Z" fill="#FF3263"/>
<path d="M921.892 205.667C958.327 232.873 842.834 305.751 842.834 353.46V640.504C842.834 731.585 773.277 806.5 687.895 806.5H261.719C176.337 806.5 106.78 731.585 106.78 640.109V347.94C106.78 303.385 -8.12642 233.267 24.9959 205.667L365.135 51.4337C414.818 10.0332 497.625 8.06176 549.149 46.7022L921.892 205.667ZM921.892 205.667C1029.86 373.605 894 396.632 921.892 560.118M921.892 560.118L979.197 622.289L951.566 636.105L921.892 560.118Z" stroke="#E20A3D" stroke-width="36.8421" stroke-linecap="round" stroke-linejoin="round"/>
<path d="M359.77 643.168V430.55H290.25L275.667 386.415C321.502 409.718 328.362 405.652 359.77 394.716C320.994 253.369 333.099 211.679 359.77 217.933C386.44 224.186 401.116 217.933 401.116 217.933C381.015 282.331 386.232 322.242 401.116 394.716H525.154C547.658 323.149 548.489 284.341 525.154 217.933C525.154 217.933 536.478 224.186 566.5 217.933C596.523 211.679 592.168 323.144 566.5 394.716C578.649 411.656 594.417 407.29 604.834 407.29L654.834 386.415L638.167 430.55H566.5V643.168H525.154V430.55H401.116V643.168H359.77Z" fill="#FDFDFD" stroke="#FDFDFD" stroke-width="9.21053"/>
</svg>
